<?xml version="1.0" encoding="UTF-8" standalone="no"?>
<!DOCTYPE svg PUBLIC "-//W3C//DTD SVG 1.1//EN" "http://www.w3.org/Graphics/SVG/1.1/DTD/svg11.dtd">
<svg xmlns="http://www.w3.org/2000/svg" xmlns:xlink="http://www.w3.org/1999/xlink" version="1.1" width="178pt" height="183pt" viewBox="0 0 178 183">
<g enable-background="new">
<g>
<path transform="matrix(1,0,0,-1,0,183)" d="M 3.92 93.26 L 12.65 93.26 C 19.36 93.26 23.83 89.33 23.83 83.44 C 23.83 77.54 19.36 73.61 12.65 73.61 L 3.92 73.61 L 3.92 93.26 Z M 12.65 88.07 L 10.74 88.07 L 10.74 78.8 L 12.65 78.8 C 15.1 78.8 16.74 80.65 16.74 83.44 C 16.74 86.22 15.1 88.07 12.65 88.07 Z " fill="#fda34d" fill-rule="evenodd"/>
<path transform="matrix(1,0,0,-1,0,183)" d="M 26.29 73.61 L 26.29 93.26 L 33.38 93.26 L 33.38 86.44 L 38.57 86.44 L 38.57 93.26 L 45.66 93.26 L 45.66 73.61 L 38.57 73.61 L 38.57 80.98 L 33.38 80.98 L 33.38 73.61 L 26.29 73.61 Z " fill="#fda34d"/>
<path transform="matrix(1,0,0,-1,0,183)" d="M 55.34 76.07 L 54.72 73.61 L 47.32 73.61 L 53.08 93.26 L 63.45 93.26 L 69.2 73.61 L 61.81 73.61 L 61.18 76.07 L 55.34 76.07 Z M 58.26 87.28 L 56.63 80.98 L 59.9 80.98 L 58.26 87.28 Z " fill="#fda34d" fill-rule="evenodd"/>
<path transform="matrix(1,0,0,-1,0,183)" d="M 77.99 79.62 L 77.99 73.61 L 70.89 73.61 L 70.89 93.26 L 81.34 93.26 C 86.39 93.26 89.72 90.45 89.72 86.16 C 89.72 83.52 88.27 81.53 85.9 80.49 L 90.37 73.61 L 82.63 73.61 L 79.62 79.62 L 77.99 79.62 Z M 77.99 88.35 L 77.99 83.98 L 79.9 83.98 C 81.37 83.98 82.63 84.77 82.63 86.16 C 82.63 87.55 81.37 88.35 79.9 88.35 L 77.99 88.35 Z " fill="#fda34d" fill-rule="evenodd"/>
<path transform="matrix(1,0,0,-1,0,183)" d="M 99.95 93.26 L 99.95 73.61 L 92.86 73.61 L 92.86 93.26 L 99.95 93.26 Z " fill="#fda34d"/>
<path transform="matrix(1,0,0,-1,0,183)" d="M 107.1 87.53 L 101.91 87.53 L 101.91 93.26 L 119.37 93.26 L 119.37 87.53 L 114.19 87.53 L 114.19 73.61 L 107.1 73.61 L 107.1 87.53 Z " fill="#fda34d"/>
<path transform="matrix(1,0,0,-1,0,183)" d="M 128.43 79.62 L 128.43 73.61 L 121.34 73.61 L 121.34 93.26 L 131.79 93.26 C 136.83 93.26 140.16 90.45 140.16 86.16 C 140.16 83.52 138.72 81.53 136.34 80.49 L 140.82 73.61 L 133.07 73.61 L 130.07 79.62 L 128.43 79.62 Z M 128.43 88.35 L 128.43 83.98 L 130.34 83.98 C 131.81 83.98 133.07 84.77 133.07 86.16 C 133.07 87.55 131.81 88.35 130.34 88.35 L 128.43 88.35 Z " fill="#fda34d" fill-rule="evenodd"/>
<path transform="matrix(1,0,0,-1,0,183)" d="M 150.12 79.07 L 157.76 79.07 L 157.76 73.61 L 143.3 73.61 L 143.3 93.26 L 157.49 93.26 L 157.49 87.8 L 150.12 87.8 L 150.12 85.89 L 156.4 85.89 L 156.4 81.25 L 150.12 81.25 L 150.12 79.07 Z " fill="#fda34d"/>
<path transform="matrix(1,0,0,-1,0,183)" d="M 167.06 79.07 L 174.7 79.07 L 174.7 73.61 L 160.24 73.61 L 160.24 93.26 L 174.43 93.26 L 174.43 87.8 L 167.06 87.8 L 167.06 85.89 L 173.34 85.89 L 173.34 81.25 L 167.06 81.25 L 167.06 79.07 Z " fill="#fda34d"/>
<g opacity=".50196078">
<clipPath id="cp0">
<path transform="matrix(1,0,0,-1,0,183)" d="M 2147483500 2147483500 L -2147483700 2147483500 L -2147483700 -2147483700 L 2147483500 -2147483700 Z "/>
</clipPath>
<g clip-path="url(#cp0)">
<path transform="matrix(1,0,0,-1,0,183)" d="M 20.55 59.39 L 19.35 59.39 L 19.35 66.47 L 22.61 66.47 C 24.16 66.47 25.26 65.52 25.26 64.17 C 25.26 63.22 24.58 62.38 23.62 62.13 L 25.38 59.39 L 24.01 59.39 L 22.45 61.95 L 20.55 61.95 L 20.55 59.39 Z M 20.55 65.48 L 20.55 62.91 L 22.47 62.91 C 23.39 62.91 24.07 63.44 24.07 64.17 C 24.07 65 23.4 65.48 22.47 65.48 L 20.55 65.48 Z " fill="#0c0c0c" fill-rule="evenodd"/>
<path transform="matrix(1,0,0,-1,0,183)" d="M 30.81 62.93 C 30.81 65.15 32.39 66.72 34.65 66.72 C 36.93 66.72 38.51 65.15 38.51 62.93 C 38.51 60.7 36.93 59.14 34.65 59.14 C 32.39 59.14 30.81 60.7 30.81 62.93 Z M 32.01 62.93 C 32.01 61.33 33.11 60.19 34.65 60.18 C 36.21 60.18 37.31 61.33 37.31 62.93 C 37.31 64.53 36.21 65.67 34.65 65.67 C 33.11 65.67 32.01 64.53 32.01 62.93 Z " fill="#0c0c0c" fill-rule="evenodd"/>
<path transform="matrix(1,0,0,-1,0,183)" d="M 44.24 62.93 C 44.24 65.15 45.82 66.72 48.09 66.72 C 50.37 66.72 51.95 65.15 51.95 62.93 C 51.95 60.7 50.37 59.14 48.09 59.14 C 45.82 59.14 44.24 60.7 44.24 62.93 Z M 45.44 62.93 C 45.44 61.33 46.54 60.19 48.09 60.18 C 49.65 60.18 50.75 61.33 50.75 62.93 C 50.75 64.53 49.65 65.67 48.09 65.67 C 46.54 65.67 45.44 64.53 45.44 62.93 Z " fill="#0c0c0c" fill-rule="evenodd"/>
<path transform="matrix(1,0,0,-1,0,183)" d="M 59.22 65.44 L 56.95 65.44 L 56.95 66.47 L 62.68 66.47 L 62.68 65.44 L 60.42 65.44 L 60.42 59.39 L 59.22 59.39 L 59.22 65.44 Z " fill="#0c0c0c"/>
<path transform="matrix(1,0,0,-1,0,183)" d="M 71.12 59.14 C 69.35 59.14 68.07 60.22 68.07 61.7 L 69.21 61.7 C 69.21 60.79 70.01 60.13 71.15 60.13 C 72.16 60.13 72.75 60.65 72.75 61.36 C 72.75 62.17 71.85 62.29 70.85 62.43 C 69.52 62.61 68.16 62.85 68.16 64.48 C 68.16 65.79 69.27 66.72 70.92 66.72 C 72.58 66.72 73.78 65.7 73.78 64.29 L 72.67 64.29 C 72.67 65.13 71.94 65.73 70.93 65.73 C 69.97 65.73 69.35 65.25 69.35 64.6 C 69.35 63.79 70.17 63.66 71.19 63.52 C 72.51 63.34 73.94 63.1 73.94 61.51 C 73.94 60.13 72.85 59.14 71.12 59.14 Z " fill="#0c0c0c"/>
<path transform="matrix(1,0,0,-1,0,183)" d="M 87.4 62.93 C 87.4 65.15 88.98 66.72 91.25 66.72 C 93.53 66.72 95.11 65.15 95.11 62.93 C 95.11 60.7 93.53 59.14 91.25 59.14 C 88.98 59.14 87.4 60.7 87.4 62.93 Z M 88.6 62.93 C 88.6 61.33 89.7 60.19 91.25 60.18 C 92.81 60.18 93.91 61.33 93.91 62.93 C 93.91 64.53 92.81 65.67 91.25 65.67 C 89.7 65.67 88.6 64.53 88.6 62.93 Z " fill="#0c0c0c" fill-rule="evenodd"/>
<path transform="matrix(1,0,0,-1,0,183)" d="M 102.38 62.12 L 102.38 59.39 L 101.18 59.39 L 101.18 66.47 L 105.81 66.47 L 105.81 65.42 L 102.38 65.42 L 102.38 63.08 L 105.22 63.08 L 105.22 62.12 L 102.38 62.12 Z " fill="#0c0c0c"/>
<path transform="matrix(1,0,0,-1,0,183)" d="M 119.37 59.39 L 119.37 66.47 L 120.57 66.47 L 120.57 60.43 L 123.91 60.43 L 123.91 59.39 L 119.37 59.39 Z " fill="#0c0c0c"/>
<path transform="matrix(1,0,0,-1,0,183)" d="M 131 66.47 L 131 59.39 L 129.8 59.39 L 129.8 66.47 L 131 66.47 Z " fill="#0c0c0c"/>
<path transform="matrix(1,0,0,-1,0,183)" d="M 138.62 62.12 L 138.62 59.39 L 137.42 59.39 L 137.42 66.47 L 142.05 66.47 L 142.05 65.42 L 138.62 65.42 L 138.62 63.08 L 141.46 63.08 L 141.46 62.12 L 138.62 62.12 Z " fill="#0c0c0c"/>
<path transform="matrix(1,0,0,-1,0,183)" d="M 149.09 60.41 L 152.93 60.41 L 152.93 59.39 L 147.93 59.39 L 147.93 66.47 L 152.83 66.47 L 152.83 65.45 L 149.09 65.45 L 149.09 63.5 L 152.43 63.5 L 152.43 62.58 L 149.09 62.58 L 149.09 60.41 Z " fill="#0c0c0c"/>
</g>
</g>
<path transform="matrix(1,0,0,-1,0,183)" d="M 62.03 6.39 C 57.7 7.63 53.52 9.22 49.49 11.09 C 52.49 15.08 55.96 18.71 65.82 18.98 C 66.39 19 66.99 19.06 67.64 19.15 C 67.51 18.89 67.4 18.61 67.3 18.34 C 66.74 16.78 66.7 15.18 66.7 14.44 C 66.7 10.49 65.92 9.79 62.03 6.39 Z " fill="#d5933f"/>
<path transform="matrix(1,0,0,-1,0,183)" d="M 46.77 12.71 C 42.31 14.92 38.07 17.49 34.04 20.35 C 35.33 20.25 36.69 20.09 38.12 19.86 C 40.66 19.46 42.86 19.39 45.25 20.05 C 47.6 20.69 50.09 22.03 53.23 24.43 C 55.5 26.16 57.51 27.69 60.1 28.63 C 62.7 29.56 65.99 29.95 70.9 29.44 C 71.56 29.37 72.15 29.83 72.22 30.47 C 72.29 31.11 71.81 31.68 71.15 31.74 L 71.15 31.75 C 65.83 32.3 62.19 31.86 59.26 30.8 C 56.31 29.74 54.17 28.1 51.74 26.25 C 48.87 24.05 46.65 22.85 44.6 22.29 C 42.6 21.74 40.71 21.8 38.5 22.15 C 35.7 22.59 33.1 22.84 30.79 22.74 C 26.99 25.7 23.46 28.97 20.17 32.47 C 23.38 33.41 26.07 33.46 28.91 32.21 C 34.46 29.76 37.67 28.36 40.45 28.13 C 43.54 27.87 45.72 28.94 49 31.51 C 52.41 34.18 54.77 35.57 56.88 36.23 C 58.92 36.85 60.91 36.81 63.58 36.58 C 68.88 36.13 73.85 36.33 77.56 38.25 C 79.01 39 80.24 39.97 81.22 41.24 C 80.99 38.08 80.48 34.78 79.51 31.88 C 78.19 27.91 76.02 24.68 72.53 23.68 C 72.38 23.64 72.23 23.6 72.09 23.56 C 70.99 23.25 70 23.01 69.12 22.83 C 68.14 22.63 67.27 22.52 66.51 22.5 C 54.41 22.16 50.41 17.6 46.77 12.71 Z " fill="#ffb761"/>
<path transform="matrix(1,0,0,-1,0,183)" d="M 96.56 50.1 L 169.37 50.1 C 166.39 44.9 162.93 40.03 159.04 35.52 C 154.24 37.26 150.4 37.57 145.9 35.59 C 140.76 33.33 137.79 32.02 135.63 31.84 C 133.78 31.69 132.27 32.5 129.83 34.4 C 126.03 37.37 123.29 38.96 120.69 39.77 C 117.99 40.59 115.61 40.56 112.5 40.29 C 107.83 39.9 103.57 40.03 100.66 41.53 C 98.08 42.86 96.5 45.48 96.56 50.1 Z " fill="#d5933f"/>
<path transform="matrix(1,0,0,-1,0,183)" d="M 17.38 35.51 C 13.49 40.02 10.02 44.9 7.04 50.1 L 79.85 50.1 C 79.91 45.47 78.33 42.85 75.76 41.52 C 72.84 40.02 68.58 39.89 63.91 40.29 C 60.8 40.55 58.42 40.59 55.73 39.76 C 53.12 38.96 50.38 37.37 46.58 34.39 C 44.15 32.49 42.63 31.68 40.78 31.83 C 38.62 32.01 35.65 33.32 30.51 35.58 C 26.01 37.56 22.18 37.26 17.38 35.51 Z " fill="#d5933f"/>
<path transform="matrix(1,0,0,-1,0,183)" d="M 111.33 5.94 C 107.93 5.08 104.47 4.36 100.93 3.87 L 100.46 4.31 C 96.32 8.21 93.64 10.73 95.19 16.82 C 95.35 17.45 94.96 18.08 94.31 18.23 C 93.66 18.38 93.01 18 92.85 17.38 C 91.11 10.51 93.64 7.53 97.83 3.56 C 94.66 3.23 91.46 3.01 88.21 3.01 C 85.01 3.01 81.87 3.23 78.76 3.54 C 82.96 7.53 85.51 10.5 83.76 17.38 C 83.6 18.01 82.95 18.38 82.3 18.23 C 81.66 18.08 81.26 17.45 81.42 16.83 C 82.97 10.73 80.3 8.22 76.15 4.32 L 75.66 3.86 C 72.11 4.33 68.65 5.04 65.24 5.9 C 69.08 9.3 69.93 10.47 69.92 15.29 C 69.92 15.95 69.97 17.38 70.45 18.74 C 70.84 19.85 71.56 20.92 72.85 21.35 L 73.23 21.46 C 77.62 22.73 80.26 26.52 81.81 31.17 C 83.84 37.27 83.96 44.88 83.71 49.81 C 83.71 49.91 83.71 50 83.71 50.1 L 92.71 50.1 C 92.7 49.22 92.72 48.38 92.81 47.6 C 92.71 42.79 93.05 36.42 94.8 31.18 C 96.34 26.53 98.98 22.74 103.37 21.47 L 103.76 21.36 C 105.04 20.93 105.76 19.86 106.16 18.75 C 106.64 17.39 106.68 15.95 106.68 15.3 C 106.67 10.49 107.51 9.31 111.33 5.94 Z " fill="#ffb761"/>
<path transform="matrix(1,0,0,-1,0,183)" d="M 156.25 32.48 C 152.96 28.98 149.43 25.7 145.64 22.75 C 143.37 22.83 140.83 22.58 138.11 22.15 C 135.9 21.8 134.01 21.74 132.01 22.28 C 129.97 22.84 127.74 24.05 124.87 26.24 C 122.44 28.1 120.3 29.73 117.35 30.79 C 114.42 31.85 110.78 32.3 105.46 31.74 C 104.8 31.67 104.32 31.1 104.39 30.46 C 104.46 29.83 105.05 29.36 105.71 29.43 C 110.62 29.95 113.91 29.56 116.51 28.62 C 119.11 27.69 121.11 26.16 123.38 24.42 C 126.52 22.02 129.01 20.69 131.36 20.05 C 133.76 19.39 135.95 19.46 138.49 19.86 C 139.84 20.07 141.12 20.23 142.34 20.33 C 138.37 17.51 134.18 14.96 129.78 12.77 C 126.16 17.65 122.14 22.17 110.09 22.51 C 109.33 22.53 108.46 22.64 107.49 22.84 C 106.6 23.02 105.61 23.26 104.51 23.56 C 104.37 23.61 104.23 23.65 104.08 23.69 C 100.58 24.69 98.41 27.91 97.09 31.88 C 96.15 34.71 95.64 37.9 95.4 40.98 C 96.34 39.85 97.51 38.95 98.85 38.26 C 102.56 36.34 107.53 36.14 112.83 36.59 C 115.5 36.81 117.49 36.86 119.53 36.23 C 121.64 35.58 124 34.19 127.41 31.52 C 130.69 28.95 132.87 27.88 135.96 28.13 C 138.74 28.37 141.95 29.77 147.5 32.22 C 150.34 33.47 153.03 33.42 156.25 32.48 Z " fill="#ffb761"/>
<path transform="matrix(1,0,0,-1,0,183)" d="M 127.27 11.13 C 123.24 9.25 119.06 7.66 114.73 6.41 C 110.88 9.77 110.1 10.49 110.1 14.43 C 110.1 15.16 110.05 16.76 109.5 18.32 C 109.4 18.6 109.29 18.87 109.16 19.14 C 109.8 19.04 110.41 18.98 110.98 18.96 C 120.8 18.69 124.28 15.09 127.27 11.13 Z " fill="#d5933f"/>
<path transform="matrix(1,0,0,-1,0,183)" d="M 89.77 137.8 C 90.14 133.07 89.7 127.97 88.3 119.95 C 88.29 119.9 88.29 119.86 88.28 119.81 C 87.23 118.45 86.33 117.06 85.61 115.63 C 84.66 116.95 83.68 118.15 82.67 119.24 C 85.37 128.09 86.82 133.23 87.24 137.52 C 87.66 141.99 86.97 145.41 85.37 150.93 C 82.5 160.83 82.1 167.17 83.97 172.75 C 84.54 174.46 85.33 176.12 86.34 177.8 C 86.49 177.8 86.63 177.8 86.78 177.81 C 86.35 176.68 85.96 175.56 85.65 174.43 C 84.01 168.39 84.13 162.14 86.42 153.67 C 88.22 146.99 89.4 142.54 89.77 137.8 Z " fill="#4ea944"/>
<path transform="matrix(1,0,0,-1,0,183)" d="M 52.41 167.01 C 55.97 167.08 58.31 166.49 59.8 165.03 C 61.44 163.42 62.26 160.64 62.71 156.4 C 60.53 156.95 58.84 157.67 57.49 158.69 C 55.25 160.37 53.79 162.95 52.41 167.01 Z " fill="#4ea944"/>
<path transform="matrix(1,0,0,-1,0,183)" d="M 33.79 152.69 L 33.79 152.69 C 33.15 154.42 32.87 155.91 32.95 157.33 C 32.96 157.47 32.98 157.62 33 157.77 C 34.72 159.2 36.49 160.57 38.32 161.87 C 38.73 160.81 38.85 159.85 38.67 158.93 C 38.29 157.02 36.66 155.09 33.79 152.69 Z " fill="#4ea944"/>
<path transform="matrix(1,0,0,-1,0,183)" d="M 48.31 126.02 C 47.04 124.66 45.81 123.71 44.49 123.1 C 42.26 122.09 39.62 122.01 35.84 122.55 C 37.18 125.18 38.56 126.66 40.3 127.2 C 42.22 127.79 44.76 127.32 48.31 126.02 Z " fill="#4ea944"/>
<path transform="matrix(1,0,0,-1,0,183)" d="M 90.85 109.4 C 90.38 107.85 90.03 105.76 89.77 103.37 L 81.76 103.37 C 81.4 106.56 80.88 109.21 80.11 110.7 C 77.54 115.66 72.86 119.27 67.74 123.24 C 65.85 124.7 63.89 126.21 61.97 127.85 C 61.72 128.08 61.47 128.3 61.21 128.52 C 58.04 131.31 54.99 134.48 52.52 138.43 C 58.13 133.19 63.3 130.02 68.06 127.1 C 74.3 123.28 79.78 119.91 84.47 112.77 C 84.1 111.57 83.91 110.34 83.88 109.09 C 83.87 108.4 84.44 107.83 85.15 107.82 C 85.87 107.81 86.45 108.36 86.47 109.05 C 86.6 115.99 93.67 122.39 100.61 128.67 C 105.09 132.73 109.52 136.74 112.19 140.96 C 114.71 144.94 116.91 149.55 118.74 154.3 C 119.4 156.02 120.01 157.74 120.58 159.46 C 118 140.38 109.21 131.53 101.7 123.97 C 100.48 122.75 99.3 121.56 98.18 120.36 C 95 117.38 92.6 113.92 91.25 110.52 L 91.24 110.5 C 91.12 110.21 91 109.88 90.88 109.52 C 90.88 109.51 90.88 109.5 90.87 109.49 C 90.86 109.46 90.86 109.43 90.85 109.4 Z " fill="#4ea944"/>
<path transform="matrix(1,0,0,-1,0,183)" d="M 72.25 137.13 C 71.48 139.38 71.71 141.93 72.72 145.49 C 75.26 143.89 76.62 142.4 76.96 140.67 C 77.34 138.75 76.56 136.37 74.8 133.13 L 74.8 133.12 C 73.55 134.5 72.71 135.79 72.25 137.13 Z " fill="#4ea944"/>
<path transform="matrix(1,0,0,-1,0,183)" d="M 28.9 130.29 L 28.9 130.29 C 27.72 128.85 26.55 127.83 25.27 127.15 C 23.12 126.02 20.48 125.78 16.68 126.1 C 17.85 128.8 19.13 130.36 20.83 131 C 22.72 131.7 25.28 131.38 28.9 130.29 Z " fill="#4ea944"/>
<path transform="matrix(1,0,0,-1,0,183)" d="M 113.48 173.97 C 113.42 174.06 113.37 174.14 113.32 174.22 C 113.41 174.19 113.5 174.16 113.59 174.13 C 113.55 174.08 113.51 174.03 113.48 173.97 Z " fill="#d5933f"/>
<path transform="matrix(1,0,0,-1,0,183)" d="M 77.78 109.58 C 78.42 108.36 78.87 106.13 79.19 103.37 L 2.58 103.37 C 4.81 119.1 11.26 133.46 20.74 145.29 C 20.9 145.38 21.03 145.5 21.14 145.65 C 21.22 145.74 21.25 145.85 21.29 145.96 C 24.09 149.39 27.15 152.59 30.44 155.55 C 30.75 152.82 32.01 149.85 34.21 145.92 C 34.55 145.32 35.33 145.09 35.97 145.41 C 36.6 145.74 36.83 146.5 36.49 147.11 C 35.86 148.24 35.3 149.3 34.83 150.26 C 38.55 153.27 40.68 155.76 41.21 158.47 C 41.53 160.06 41.27 161.65 40.47 163.37 C 43.35 165.28 46.35 167.01 49.44 168.57 C 49.39 168.42 49.37 168.27 49.38 168.1 C 49.38 168 49.4 167.91 49.43 167.83 C 51.13 162.36 52.88 158.97 55.89 156.71 C 58.87 154.48 62.94 153.49 69.28 152.81 C 69.99 152.73 70.63 153.23 70.71 153.92 C 70.79 154.6 70.28 155.22 69.57 155.3 C 68.03 155.46 66.63 155.64 65.37 155.86 C 64.88 161.1 63.87 164.59 61.65 166.78 C 59.43 168.95 56.17 169.7 51.24 169.46 C 54.81 171.16 58.5 172.61 62.32 173.81 C 62.63 173.8 62.92 173.89 63.17 174.08 C 65.11 174.67 67.07 175.2 69.06 175.66 C 68.46 174.44 68.12 173.12 68.31 171.59 C 67.72 172.07 67.14 172.56 66.57 173.06 C 66.05 173.53 65.23 173.5 64.74 172.99 C 64.26 172.48 64.29 171.69 64.82 171.22 C 66.39 169.83 68 168.59 69.62 167.35 C 74.6 163.53 79.58 159.71 82.52 151.55 C 82.63 151.12 82.75 150.69 82.88 150.26 C 84.39 145.04 85.06 141.82 84.67 137.74 C 84.3 133.9 83 129.19 80.61 121.3 C 77.18 124.48 73.46 126.76 69.45 129.22 C 63.43 132.91 56.72 137.03 49.36 145.34 C 48.89 145.86 48.08 145.92 47.53 145.48 C 47.28 145.26 47.13 144.97 47.09 144.67 C 46.93 144.37 46.9 144.01 47.03 143.68 C 48.64 139.54 50.77 136.1 53.18 133.12 C 51.38 133.84 49.5 134.45 47.58 135.02 C 47.47 135.14 47.33 135.24 47.17 135.32 C 45.91 135.89 44.31 137 42.68 138.41 C 41.07 139.8 39.45 141.47 38.1 143.19 C 37.67 143.74 36.86 143.86 36.29 143.44 C 35.72 143.03 35.6 142.25 36.03 141.7 C 37.31 140.06 38.81 138.48 40.33 137.1 C 34.86 138.71 29.29 140.71 24.33 144.55 C 23.77 144.99 22.95 144.9 22.51 144.36 C 22.06 143.83 22.15 143.04 22.7 142.61 C 29.11 137.64 36.26 135.63 43.05 133.72 C 46.17 132.84 49.22 131.98 52.05 130.86 C 51.34 129.82 50.67 128.89 50.03 128.06 C 45.52 129.78 42.24 130.41 39.52 129.58 C 36.67 128.7 34.65 126.33 32.78 122.08 C 32.5 121.44 32.8 120.71 33.46 120.44 C 33.58 120.39 33.7 120.36 33.82 120.35 C 39 119.45 42.51 119.44 45.6 120.84 C 48.67 122.24 51.15 124.98 54.29 129.59 C 54.34 129.67 54.38 129.75 54.41 129.83 C 56.21 128.97 57.89 127.96 59.42 126.71 C 61.29 125.07 63.21 123.55 65.09 122.1 C 65.02 122.1 64.96 122.1 64.9 122.1 C 60.53 122.57 56.7 120.78 52.49 118.82 C 47.71 116.59 42.39 114.1 35.1 115.03 C 34.39 115.12 33.74 114.64 33.65 113.95 C 33.56 113.27 34.05 112.64 34.76 112.55 C 42.83 111.53 48.51 114.18 53.62 116.57 C 54.07 116.78 59.22 118.33 60.92 118.98 C 61.7 119.29 62.56 119.48 63.53 119.56 L 63.52 119.56 C 66.4 119.53 69.49 118.44 73.14 115.48 C 75.06 113.65 76.67 111.73 77.78 109.58 Z M 69.8 136.35 C 70.87 133.23 73.39 130.54 77.77 126.98 C 78.32 126.54 79.13 126.61 79.59 127.13 C 80.05 127.66 79.98 128.45 79.43 128.89 C 78.41 129.72 77.5 130.5 76.69 131.24 C 79.01 135.36 80.04 138.43 79.51 141.13 C 78.95 143.97 76.75 146.18 72.59 148.48 C 71.97 148.83 71.19 148.62 70.83 148.02 C 70.78 147.94 70.74 147.85 70.71 147.77 C 69.16 142.87 68.72 139.49 69.8 136.35 Z M 34.64 134.2 C 35 134.8 34.78 135.57 34.16 135.91 C 33.54 136.26 32.75 136.05 32.39 135.45 C 31.73 134.33 31.09 133.32 30.49 132.42 C 25.88 133.88 22.56 134.32 19.9 133.33 C 17.11 132.29 15.25 129.8 13.64 125.44 C 13.4 124.79 13.76 124.08 14.43 123.85 C 14.53 123.82 14.62 123.8 14.71 123.79 L 14.71 123.78 C 19.98 123.18 23.5 123.37 26.51 124.96 L 26.52 124.96 C 29.5 126.54 31.8 129.41 34.64 134.2 Z " fill="#a6d044" fill-rule="evenodd"/>
<path transform="matrix(1,0,0,-1,0,183)" d="M 72.55 176.39 C 76.07 177.04 79.67 177.47 83.33 177.68 C 82.6 176.31 81.98 174.94 81.51 173.51 C 80.23 169.71 79.91 165.64 80.58 160.57 C 78.08 163.89 75.17 166.27 72.23 168.54 C 70.07 171.97 71.03 174.3 72.55 176.39 Z " fill="#a6d044"/>
<path transform="matrix(1,0,0,-1,0,183)" d="M 145.89 155.22 C 145.92 155.47 145.97 155.72 146.05 155.97 C 147.65 154.55 149.2 153.07 150.69 151.53 C 150.29 150.34 149.63 149.14 148.63 147.86 C 146.63 150.97 145.66 153.28 145.89 155.22 Z " fill="#a6d044"/>
<path transform="matrix(1,0,0,-1,0,183)" d="M 88.16 173.79 C 88.52 175.13 89.02 176.47 89.57 177.82 C 92.19 177.79 94.79 177.64 97.36 177.38 C 97.12 177.24 96.92 177.05 96.82 176.79 C 95.24 172.79 96.77 169.47 98.18 166.39 C 99.48 163.56 100.68 160.96 98.31 158.51 C 95.27 155.57 92.42 152.15 90.87 146.79 C 90.34 149.03 89.69 151.47 88.92 154.3 C 86.76 162.31 86.63 168.17 88.16 173.79 Z " fill="#4ea944"/>
<path transform="matrix(1,0,0,-1,0,183)" d="M 158.4 138.02 L 158.4 138.02 C 158.91 138.65 159.59 139.14 160.45 139.52 C 161.31 138.25 162.13 136.95 162.92 135.63 C 162.38 134.51 161.74 133.58 160.93 132.81 C 159.89 131.82 158.54 131.04 156.78 130.36 C 156.74 134.01 157.16 136.48 158.4 138.02 Z " fill="#a6d044"/>
<path transform="matrix(1,0,0,-1,0,183)" d="M 109.28 127.2 C 111.5 129 113.62 130.31 116.18 131.21 C 122.7 132.36 125.73 130.35 128.91 128.23 C 129.51 127.83 130.12 127.43 130.75 127.03 C 129.45 127.3 128.22 127.59 127.09 127.86 C 126.42 128.02 125.77 128.17 125.64 128.21 C 119.78 129.55 114.2 128.98 109.28 127.2 Z " fill="#4ea944"/>
<path transform="matrix(1,0,0,-1,0,183)" d="M 100.09 145.95 C 100.28 147.72 101.24 149.37 103.05 151.45 C 104.26 149.57 104.71 148.13 104.39 146.85 C 104.04 145.44 102.76 144.07 100.54 142.44 C 100.13 143.77 99.98 144.9 100.09 145.95 Z " fill="#a6d044"/>
<path transform="matrix(1,0,0,-1,0,183)" d="M 121.45 171.33 C 121.17 171.16 120.96 170.88 120.89 170.54 C 119.86 165.67 118.31 160.33 116.32 155.17 C 114.54 150.57 112.41 146.11 109.98 142.27 C 107.49 138.33 103.19 134.44 98.84 130.49 C 96.31 128.21 93.77 125.9 91.51 123.54 C 92.42 129.58 92.67 133.89 92.35 137.98 C 92.33 138.26 92.31 138.53 92.28 138.8 C 92.67 150.03 97.77 154.64 102.59 159 C 104.12 160.39 105.62 161.74 106.98 163.29 C 107.44 163.81 107.37 164.6 106.83 165.05 C 106.28 165.49 105.46 165.43 105 164.9 C 104.18 163.96 103.27 163.08 102.33 162.2 C 102.16 163.91 101.37 165.61 100.56 167.4 C 99.35 170.03 98.05 172.86 99.24 175.9 C 99.43 176.36 99.3 176.86 98.96 177.2 C 102.59 176.76 106.14 176.1 109.62 175.23 C 110.24 174.19 110.96 173.09 111.78 171.93 C 110.79 170.83 109.66 169.64 108.37 168.37 C 107.87 167.88 107.88 167.08 108.39 166.6 C 108.9 166.12 109.72 166.13 110.22 166.63 C 112.74 169.12 114.71 171.28 116.17 173.32 C 117.96 172.72 119.72 172.05 121.45 171.33 Z M 103.91 153.52 C 103.6 153.94 103 154.05 102.57 153.76 C 102.51 153.72 102.46 153.68 102.41 153.63 C 99.81 150.81 98.44 148.67 98.18 146.2 C 97.92 143.75 98.77 141.13 100.61 137.35 C 100.84 136.87 101.41 136.66 101.88 136.87 C 102.36 137.08 102.56 137.64 102.33 138.11 C 101.9 138.99 101.53 139.81 101.22 140.56 C 104.09 142.61 105.76 144.36 106.26 146.36 C 106.78 148.45 105.99 150.64 103.91 153.52 Z " fill="#4ea944" fill-rule="evenodd"/>
<path transform="matrix(1,0,0,-1,0,183)" d="M 151.32 119.39 C 152.78 120.04 154.54 119.84 156.92 118.85 C 154.73 116.33 152.92 114.86 150.88 114.26 L 150.88 114.27 C 149.65 113.91 148.3 113.84 146.68 114.02 C 148.29 116.91 149.71 118.68 151.32 119.39 Z " fill="#a6d044"/>
<path transform="matrix(1,0,0,-1,0,183)" d="M 174.37 103.37 L 92.36 103.37 C 92.6 105.52 92.91 107.39 93.34 108.72 L 93.34 108.73 C 93.42 108.97 93.51 109.21 93.6 109.44 C 93.61 109.48 93.62 109.51 93.64 109.54 C 94.55 111.66 95.79 113.57 97.25 115.41 C 97.26 115.43 97.28 115.44 97.29 115.45 C 101.78 119.1 105.42 119.93 108.86 119.44 C 109.44 119.33 109.99 119.18 110.49 118.98 C 111.63 118.55 113.75 117.74 116.86 116.57 C 121.98 114.18 127.65 111.53 135.72 112.55 C 136.43 112.64 136.93 113.27 136.84 113.95 C 136.74 114.63 136.09 115.12 135.39 115.03 C 128.09 114.1 122.78 116.59 117.99 118.82 C 113.35 120.99 109.16 122.94 104.19 121.88 C 104.87 122.32 105.58 122.74 106.31 123.13 C 111.64 126 118.13 127.36 125.04 125.77 C 125.82 125.59 126.14 125.51 126.47 125.43 C 131.81 124.16 139.15 122.42 147.16 124.78 C 147.84 124.98 148.23 125.67 148.02 126.33 C 147.81 126.99 147.09 127.37 146.41 127.17 C 145.34 126.85 144.28 126.61 143.23 126.45 C 143.13 126.46 143.02 126.47 142.92 126.46 C 140.93 126.26 139.5 126.34 138.3 126.57 C 137.12 126.8 136.09 127.21 134.95 127.68 C 133.23 128.39 131.79 129.34 130.38 130.28 C 129.08 131.14 127.81 131.99 126.36 132.67 C 126.99 132.68 127.64 132.68 128.32 132.67 C 131.7 132.62 134.48 133.07 136.83 133.96 C 139.23 134.86 141.16 136.19 142.81 137.87 C 143.3 138.38 143.28 139.17 142.76 139.64 C 142.24 140.11 141.42 140.09 140.93 139.59 C 139.53 138.16 137.9 137.04 135.9 136.29 C 133.84 135.51 131.38 135.12 128.35 135.16 C 128.3 135.16 128.25 135.16 128.2 135.16 C 130.07 136.71 131.75 138.88 133.05 141.58 C 135.18 146.01 136.34 151.91 135.64 158.89 C 135.57 159.58 134.94 160.08 134.23 160.02 C 133.52 159.95 132.99 159.34 133.06 158.66 C 133.71 152.15 132.66 146.69 130.7 142.63 C 128.55 138.18 125.37 135.46 122.24 134.98 C 118.37 134.65 115.44 133.88 112.85 132.6 C 118.81 140.64 123.73 151.7 123.9 170.2 C 123.9 170.23 123.89 170.26 123.88 170.3 C 131.17 167.03 137.92 162.79 143.98 157.74 C 143.63 157.02 143.41 156.27 143.31 155.5 C 142.99 152.77 144.27 149.78 146.89 145.84 L 146.9 145.84 C 146.15 145.05 145.3 144.2 144.34 143.3 C 143.83 142.82 143.82 142.03 144.32 141.53 C 144.83 141.04 145.65 141.04 146.16 141.52 C 149.38 144.57 151.48 147 152.63 149.45 C 154.9 146.97 157.01 144.36 158.98 141.62 C 157.91 141.09 157.05 140.41 156.35 139.55 C 154.61 137.38 154.08 134.19 154.21 129.51 L 154.21 129.5 C 153.15 129.2 151.96 128.91 150.66 128.62 C 149.96 128.46 149.53 127.79 149.69 127.12 C 149.85 126.45 150.54 126.02 151.24 126.18 C 156.81 127.43 160.33 128.73 162.75 131.03 C 163.38 131.63 163.94 132.3 164.42 133.04 C 169.41 124.01 172.86 114 174.37 103.37 Z M 159.24 120.3 C 155.56 122.06 152.87 122.48 150.48 121.43 C 148.21 120.43 146.38 118.13 144.38 114.39 C 143.45 114.59 142.43 114.83 141.33 115.13 C 140.74 115.29 140.11 114.94 139.93 114.34 C 139.75 113.75 140.08 113.13 140.67 112.97 C 145.39 111.7 148.59 111.29 151.43 112.12 L 151.43 112.13 C 154.3 112.97 156.63 115 159.58 118.6 C 159.63 118.66 159.67 118.73 159.71 118.81 C 160 119.37 159.78 120.03 159.24 120.3 Z " fill="#4ea944" fill-rule="evenodd"/>
<path transform="matrix(1,0,0,-1,0,183)" d="M 3.92 -140.49 L 12.65 -140.49 C 19.36 -140.49 23.83 -144.42 23.83 -150.31 C 23.83 -156.2 19.36 -160.13 12.65 -160.13 L 3.92 -160.13 L 3.92 -140.49 Z M 12.65 -145.67 L 10.74 -145.67 L 10.74 -154.95 L 12.65 -154.95 C 15.1 -154.95 16.74 -153.09 16.74 -150.31 C 16.74 -147.53 15.1 -145.67 12.65 -145.67 Z " fill="#424748" fill-rule="evenodd"/>
<path transform="matrix(1,0,0,-1,0,183)" d="M 26.29 -160.13 L 26.29 -140.49 L 33.38 -140.49 L 33.38 -147.31 L 38.57 -147.31 L 38.57 -140.49 L 45.66 -140.49 L 45.66 -160.13 L 38.57 -160.13 L 38.57 -152.76 L 33.38 -152.76 L 33.38 -160.13 L 26.29 -160.13 Z " fill="#424748"/>
<path transform="matrix(1,0,0,-1,0,183)" d="M 55.34 -157.67 L 54.72 -160.13 L 47.32 -160.13 L 53.08 -140.49 L 63.45 -140.49 L 69.2 -160.13 L 61.81 -160.13 L 61.18 -157.67 L 55.34 -157.67 Z M 58.26 -146.46 L 56.63 -152.76 L 59.9 -152.76 L 58.26 -146.46 Z " fill="#424748" fill-rule="evenodd"/>
<path transform="matrix(1,0,0,-1,0,183)" d="M 77.99 -154.13 L 77.99 -160.13 L 70.89 -160.13 L 70.89 -140.49 L 81.34 -140.49 C 86.39 -140.49 89.72 -143.3 89.72 -147.58 C 89.72 -150.23 88.27 -152.22 85.9 -153.25 L 90.37 -160.13 L 82.63 -160.13 L 79.62 -154.13 L 77.99 -154.13 Z M 77.99 -145.4 L 77.99 -149.76 L 79.9 -149.76 C 81.37 -149.76 82.63 -148.97 82.63 -147.58 C 82.63 -146.19 81.37 -145.4 79.9 -145.4 L 77.99 -145.4 Z " fill="#424748" fill-rule="evenodd"/>
<path transform="matrix(1,0,0,-1,0,183)" d="M 99.95 -140.49 L 99.95 -160.13 L 92.86 -160.13 L 92.86 -140.49 L 99.95 -140.49 Z " fill="#424748"/>
<path transform="matrix(1,0,0,-1,0,183)" d="M 107.1 -146.22 L 101.91 -146.22 L 101.91 -140.49 L 119.37 -140.49 L 119.37 -146.22 L 114.19 -146.22 L 114.19 -160.13 L 107.1 -160.13 L 107.1 -146.22 Z " fill="#424748"/>
<path transform="matrix(1,0,0,-1,0,183)" d="M 128.43 -154.13 L 128.43 -160.13 L 121.34 -160.13 L 121.34 -140.49 L 131.79 -140.49 C 136.83 -140.49 140.16 -143.3 140.16 -147.58 C 140.16 -150.23 138.72 -152.22 136.34 -153.25 L 140.82 -160.13 L 133.07 -160.13 L 130.07 -154.13 L 128.43 -154.13 Z M 128.43 -145.4 L 128.43 -149.76 L 130.34 -149.76 C 131.81 -149.76 133.07 -148.97 133.07 -147.58 C 133.07 -146.19 131.81 -145.4 130.34 -145.4 L 128.43 -145.4 Z " fill="#424748" fill-rule="evenodd"/>
<path transform="matrix(1,0,0,-1,0,183)" d="M 150.12 -154.67 L 157.76 -154.67 L 157.76 -160.13 L 143.3 -160.13 L 143.3 -140.49 L 157.49 -140.49 L 157.49 -145.94 L 150.12 -145.94 L 150.12 -147.85 L 156.4 -147.85 L 156.4 -152.49 L 150.12 -152.49 L 150.12 -154.67 Z " fill="#424748"/>
<path transform="matrix(1,0,0,-1,0,183)" d="M 167.06 -154.67 L 174.7 -154.67 L 174.7 -160.13 L 160.24 -160.13 L 160.24 -140.49 L 174.43 -140.49 L 174.43 -145.94 L 167.06 -145.94 L 167.06 -147.85 L 173.34 -147.85 L 173.34 -152.49 L 167.06 -152.49 L 167.06 -154.67 Z " fill="#424748"/>
<path transform="matrix(1,0,0,-1,0,183)" d="M 20.55 -174.35 L 19.35 -174.35 L 19.35 -167.27 L 22.61 -167.27 C 24.16 -167.27 25.26 -168.22 25.26 -169.57 C 25.26 -170.52 24.58 -171.36 23.62 -171.61 L 25.38 -174.35 L 24.01 -174.35 L 22.45 -171.79 L 20.55 -171.79 L 20.55 -174.35 Z M 20.55 -168.26 L 20.55 -170.83 L 22.47 -170.83 C 23.39 -170.83 24.07 -170.3 24.07 -169.57 C 24.07 -168.74 23.4 -168.26 22.47 -168.26 L 20.55 -168.26 Z " fill="#424748" fill-rule="evenodd"/>
<path transform="matrix(1,0,0,-1,0,183)" d="M 30.81 -170.81 C 30.81 -168.59 32.39 -167.02 34.65 -167.02 C 36.93 -167.02 38.51 -168.59 38.51 -170.81 C 38.51 -173.04 36.93 -174.6 34.65 -174.6 C 32.39 -174.6 30.81 -173.04 30.81 -170.81 Z M 32.01 -170.81 C 32.01 -172.41 33.11 -173.55 34.65 -173.56 C 36.21 -173.56 37.31 -172.41 37.31 -170.81 C 37.31 -169.21 36.21 -168.07 34.65 -168.07 C 33.11 -168.07 32.01 -169.21 32.01 -170.81 Z " fill="#424748" fill-rule="evenodd"/>
<path transform="matrix(1,0,0,-1,0,183)" d="M 44.24 -170.81 C 44.24 -168.59 45.82 -167.02 48.09 -167.02 C 50.37 -167.02 51.95 -168.59 51.95 -170.81 C 51.95 -173.04 50.37 -174.6 48.09 -174.6 C 45.82 -174.6 44.24 -173.04 44.24 -170.81 Z M 45.44 -170.81 C 45.44 -172.41 46.54 -173.55 48.09 -173.56 C 49.65 -173.56 50.75 -172.41 50.75 -170.81 C 50.75 -169.21 49.65 -168.07 48.09 -168.07 C 46.54 -168.07 45.44 -169.21 45.44 -170.81 Z " fill="#424748" fill-rule="evenodd"/>
<path transform="matrix(1,0,0,-1,0,183)" d="M 59.22 -168.3 L 56.95 -168.3 L 56.95 -167.27 L 62.68 -167.27 L 62.68 -168.3 L 60.42 -168.3 L 60.42 -174.35 L 59.22 -174.35 L 59.22 -168.3 Z " fill="#424748"/>
<path transform="matrix(1,0,0,-1,0,183)" d="M 71.12 -174.6 C 69.35 -174.6 68.07 -173.52 68.07 -172.04 L 69.21 -172.04 C 69.21 -172.95 70.01 -173.61 71.15 -173.61 C 72.16 -173.61 72.75 -173.09 72.75 -172.38 C 72.75 -171.57 71.85 -171.45 70.85 -171.31 C 69.52 -171.13 68.16 -170.89 68.16 -169.26 C 68.16 -167.95 69.27 -167.02 70.92 -167.02 C 72.58 -167.02 73.78 -168.04 73.78 -169.45 L 72.67 -169.45 C 72.67 -168.61 71.94 -168.01 70.93 -168.01 C 69.97 -168.01 69.35 -168.49 69.35 -169.14 C 69.35 -169.95 70.17 -170.08 71.19 -170.22 C 72.51 -170.4 73.94 -170.64 73.94 -172.23 C 73.94 -173.61 72.85 -174.6 71.12 -174.6 Z " fill="#424748"/>
<path transform="matrix(1,0,0,-1,0,183)" d="M 87.4 -170.81 C 87.4 -168.59 88.98 -167.02 91.25 -167.02 C 93.53 -167.02 95.11 -168.59 95.11 -170.81 C 95.11 -173.04 93.53 -174.6 91.25 -174.6 C 88.98 -174.6 87.4 -173.04 87.4 -170.81 Z M 88.6 -170.81 C 88.6 -172.41 89.7 -173.55 91.25 -173.56 C 92.81 -173.56 93.91 -172.41 93.91 -170.81 C 93.91 -169.21 92.81 -168.07 91.25 -168.07 C 89.7 -168.07 88.6 -169.21 88.6 -170.81 Z " fill="#424748" fill-rule="evenodd"/>
<path transform="matrix(1,0,0,-1,0,183)" d="M 102.38 -171.62 L 102.38 -174.35 L 101.18 -174.35 L 101.18 -167.27 L 105.81 -167.27 L 105.81 -168.32 L 102.38 -168.32 L 102.38 -170.66 L 105.22 -170.66 L 105.22 -171.62 L 102.38 -171.62 Z " fill="#424748"/>
<path transform="matrix(1,0,0,-1,0,183)" d="M 119.37 -174.35 L 119.37 -167.27 L 120.57 -167.27 L 120.57 -173.31 L 123.91 -173.31 L 123.91 -174.35 L 119.37 -174.35 Z " fill="#424748"/>
<path transform="matrix(1,0,0,-1,0,183)" d="M 131 -167.27 L 131 -174.35 L 129.8 -174.35 L 129.8 -167.27 L 131 -167.27 Z " fill="#424748"/>
<path transform="matrix(1,0,0,-1,0,183)" d="M 138.62 -171.62 L 138.62 -174.35 L 137.42 -174.35 L 137.42 -167.27 L 142.05 -167.27 L 142.05 -168.32 L 138.62 -168.32 L 138.62 -170.66 L 141.46 -170.66 L 141.46 -171.62 L 138.62 -171.62 Z " fill="#424748"/>
<path transform="matrix(1,0,0,-1,0,183)" d="M 149.09 -173.33 L 152.93 -173.33 L 152.93 -174.35 L 147.93 -174.35 L 147.93 -167.27 L 152.83 -167.27 L 152.83 -168.29 L 149.09 -168.29 L 149.09 -170.24 L 152.43 -170.24 L 152.43 -171.16 L 149.09 -171.16 L 149.09 -173.33 Z " fill="#424748"/>
<path transform="matrix(1,0,0,-1,0,183)" d="M 62.03 -227.35 C 57.7 -226.11 53.52 -224.52 49.49 -222.65 C 52.49 -218.66 55.96 -215.04 65.82 -214.76 C 66.39 -214.74 66.99 -214.69 67.64 -214.59 C 67.51 -214.86 67.4 -215.13 67.3 -215.4 C 66.74 -216.96 66.7 -218.57 66.7 -219.3 C 66.7 -223.25 65.92 -223.95 62.03 -227.35 Z " fill="#424748"/>
<path transform="matrix(1,0,0,-1,0,183)" d="M 46.77 -221.04 C 42.31 -218.83 38.07 -216.26 34.04 -213.39 C 35.33 -213.49 36.69 -213.66 38.12 -213.88 C 40.66 -214.28 42.86 -214.35 45.25 -213.69 C 47.6 -213.05 50.09 -211.72 53.23 -209.32 C 55.5 -207.58 57.51 -206.05 60.1 -205.12 C 62.7 -204.18 65.99 -203.79 70.9 -204.31 C 71.56 -204.38 72.15 -203.91 72.22 -203.28 C 72.29 -202.64 71.81 -202.07 71.15 -202 C 65.83 -201.44 62.19 -201.89 59.26 -202.94 C 56.31 -204.01 54.17 -205.64 51.74 -207.5 C 48.87 -209.69 46.65 -210.9 44.6 -211.46 C 42.6 -212.01 40.71 -211.94 38.5 -211.59 C 35.7 -211.15 33.1 -210.9 30.79 -211.01 C 26.99 -208.05 23.46 -204.77 20.17 -201.27 C 23.38 -200.33 26.07 -200.28 28.91 -201.53 C 34.46 -203.98 37.67 -205.39 40.45 -205.62 C 43.54 -205.88 45.72 -204.8 49 -202.23 C 52.41 -199.57 54.77 -198.17 56.88 -197.52 C 58.92 -196.89 60.91 -196.94 63.58 -197.16 C 68.88 -197.61 73.85 -197.41 77.56 -195.49 C 79.01 -194.75 80.24 -193.77 81.22 -192.51 C 80.99 -195.67 80.48 -198.96 79.51 -201.87 C 78.19 -205.84 76.02 -209.06 72.53 -210.06 C 72.38 -210.1 72.23 -210.14 72.09 -210.19 C 70.99 -210.49 70 -210.74 69.12 -210.91 C 68.14 -211.11 67.27 -211.22 66.51 -211.24 C 54.41 -211.58 50.41 -216.14 46.77 -221.04 Z " fill="#424748"/>
<path transform="matrix(1,0,0,-1,0,183)" d="M 96.56 -183.64 L 169.37 -183.64 C 166.39 -188.84 162.93 -193.72 159.04 -198.23 C 154.24 -196.48 150.4 -196.17 145.9 -198.15 C 140.76 -200.42 137.79 -201.72 135.63 -201.9 C 133.78 -202.05 132.27 -201.25 129.83 -199.35 C 126.03 -196.37 123.29 -194.78 120.69 -193.98 C 117.99 -193.15 115.61 -193.19 112.5 -193.45 C 107.83 -193.85 103.57 -193.72 100.66 -192.21 C 98.08 -190.88 96.5 -188.27 96.56 -183.64 Z " fill="#424748"/>
<path transform="matrix(1,0,0,-1,0,183)" d="M 17.38 -198.23 C 13.49 -193.72 10.02 -188.84 7.04 -183.64 L 79.85 -183.64 C 79.91 -188.27 78.33 -190.89 75.76 -192.22 C 72.84 -193.73 68.58 -193.85 63.91 -193.46 C 60.8 -193.19 58.42 -193.16 55.73 -193.99 C 53.12 -194.79 50.38 -196.38 46.58 -199.35 C 44.15 -201.26 42.63 -202.06 40.78 -201.91 C 38.62 -201.73 35.65 -200.43 30.51 -198.16 C 26.01 -196.18 22.18 -196.49 17.38 -198.23 Z " fill="#424748"/>
<path transform="matrix(1,0,0,-1,0,183)" d="M 111.33 -227.8 C 107.93 -228.67 104.47 -229.39 100.93 -229.87 L 100.46 -229.43 C 96.32 -225.53 93.64 -223.01 95.19 -216.92 C 95.35 -216.3 94.96 -215.67 94.31 -215.52 C 93.66 -215.36 93.01 -215.74 92.85 -216.36 C 91.11 -223.24 93.64 -226.21 97.83 -230.19 C 94.66 -230.51 91.46 -230.73 88.21 -230.73 C 85.01 -230.73 81.87 -230.52 78.76 -230.2 C 82.96 -226.22 85.51 -223.25 83.76 -216.36 C 83.6 -215.74 82.95 -215.36 82.3 -215.51 C 81.66 -215.66 81.26 -216.29 81.42 -216.92 C 82.97 -223.01 80.3 -225.53 76.15 -229.43 L 75.66 -229.89 C 72.11 -229.41 68.65 -228.7 65.24 -227.84 C 69.08 -224.45 69.93 -223.28 69.92 -218.45 C 69.92 -217.8 69.97 -216.37 70.45 -215.01 C 70.84 -213.89 71.56 -212.82 72.85 -212.39 L 73.23 -212.28 C 77.62 -211.02 80.26 -207.22 81.81 -202.58 C 83.84 -196.47 83.96 -188.86 83.71 -183.93 C 83.71 -183.84 83.71 -183.74 83.71 -183.64 L 92.71 -183.64 C 92.7 -184.52 92.72 -185.36 92.81 -186.14 C 92.71 -190.96 93.05 -197.32 94.8 -202.57 C 96.34 -207.21 98.98 -211.01 103.37 -212.28 L 103.76 -212.38 C 105.04 -212.81 105.76 -213.88 106.16 -215 C 106.64 -216.36 106.68 -217.79 106.68 -218.44 C 106.67 -223.26 107.51 -224.43 111.33 -227.8 Z " fill="#424748"/>
<path transform="matrix(1,0,0,-1,0,183)" d="M 156.25 -201.27 C 152.96 -204.77 149.43 -208.04 145.64 -211 C 143.37 -210.91 140.83 -211.17 138.11 -211.6 C 135.9 -211.94 134.01 -212.01 132.01 -211.46 C 129.97 -210.9 127.74 -209.7 124.87 -207.5 C 122.44 -205.65 120.3 -204.01 117.35 -202.95 C 114.42 -201.89 110.78 -201.44 105.46 -202 C 104.8 -202.07 104.32 -202.64 104.39 -203.28 C 104.46 -203.92 105.05 -204.38 105.71 -204.31 C 110.62 -203.8 113.91 -204.18 116.51 -205.12 C 119.11 -206.06 121.11 -207.59 123.38 -209.32 C 126.52 -211.72 129.01 -213.05 131.36 -213.7 C 133.76 -214.35 135.95 -214.28 138.49 -213.89 C 139.84 -213.67 141.12 -213.51 142.34 -213.41 C 138.37 -216.24 134.18 -218.78 129.78 -220.97 C 126.16 -216.1 122.14 -211.57 110.09 -211.24 C 109.33 -211.21 108.46 -211.1 107.49 -210.91 C 106.6 -210.73 105.61 -210.49 104.51 -210.18 C 104.37 -210.13 104.23 -210.09 104.08 -210.05 C 100.58 -209.05 98.41 -205.83 97.09 -201.86 C 96.15 -199.03 95.64 -195.84 95.4 -192.76 C 96.34 -193.9 97.51 -194.79 98.85 -195.48 C 102.56 -197.4 107.53 -197.61 112.83 -197.16 C 115.5 -196.93 117.49 -196.89 119.53 -197.51 C 121.64 -198.16 124 -199.56 127.41 -202.22 C 130.69 -204.79 132.87 -205.87 135.96 -205.61 C 138.74 -205.38 141.95 -203.97 147.5 -201.52 C 150.34 -200.27 153.03 -200.32 156.25 -201.27 Z " fill="#424748"/>
<path transform="matrix(1,0,0,-1,0,183)" d="M 127.27 -222.61 C 123.24 -224.49 119.06 -226.09 114.73 -227.33 C 110.88 -223.97 110.1 -223.26 110.1 -219.32 C 110.1 -218.58 110.05 -216.98 109.5 -215.42 C 109.4 -215.15 109.29 -214.87 109.16 -214.61 C 109.8 -214.71 110.41 -214.76 110.98 -214.78 C 120.8 -215.05 124.28 -218.65 127.27 -222.61 Z " fill="#424748"/>
<path transform="matrix(1,0,0,-1,0,183)" d="M 86.78 -55.94 C 86.63 -55.94 86.49 -55.94 86.34 -55.95 C 86.7 -55.34 87.08 -54.74 87.5 -54.12 C 87.24 -54.73 87.01 -55.33 86.78 -55.94 Z " fill="#2c2e35"/>
<path transform="matrix(1,0,0,-1,0,183)" d="M 89.77 -95.94 C 90.14 -100.68 89.7 -105.77 88.3 -113.79 C 88.29 -113.84 88.29 -113.89 88.28 -113.93 C 87.23 -115.29 86.33 -116.69 85.61 -118.11 C 84.66 -116.79 83.68 -115.59 82.67 -114.51 C 85.37 -105.65 86.82 -100.51 87.24 -96.23 C 87.66 -91.75 86.97 -88.33 85.37 -82.82 C 82.5 -72.91 82.1 -66.57 83.97 -60.99 C 84.54 -59.28 85.33 -57.63 86.34 -55.95 C 86.49 -55.94 86.63 -55.94 86.78 -55.94 C 86.35 -57.06 85.96 -58.18 85.65 -59.32 C 84.01 -65.36 84.13 -71.6 86.42 -80.07 C 88.22 -86.75 89.4 -91.2 89.77 -95.94 Z " fill="#424748"/>
<path transform="matrix(1,0,0,-1,0,183)" d="M 52.41 -66.74 C 55.97 -66.67 58.31 -67.25 59.8 -68.72 C 61.44 -70.32 62.26 -73.11 62.71 -77.34 C 60.53 -76.79 58.84 -76.07 57.49 -75.05 C 55.25 -73.38 53.79 -70.79 52.41 -66.74 Z " fill="#424748"/>
<path transform="matrix(1,0,0,-1,0,183)" d="M 33.79 -81.05 L 33.79 -81.05 C 33.15 -79.32 32.87 -77.83 32.95 -76.42 C 32.96 -76.27 32.98 -76.12 33 -75.98 C 34.72 -74.54 36.49 -73.18 38.32 -71.88 C 38.73 -72.93 38.85 -73.89 38.67 -74.81 C 38.29 -76.72 36.66 -78.66 33.79 -81.05 Z " fill="#424748"/>
<path transform="matrix(1,0,0,-1,0,183)" d="M 48.31 -107.73 C 47.04 -109.09 45.81 -110.04 44.49 -110.64 C 42.26 -111.65 39.62 -111.74 35.84 -111.19 C 37.18 -108.57 38.56 -107.08 40.3 -106.55 C 42.22 -105.96 44.76 -106.43 48.31 -107.73 Z " fill="#424748"/>
<path transform="matrix(1,0,0,-1,0,183)" d="M 90.85 -124.34 C 90.38 -125.89 90.03 -127.99 89.77 -130.37 L 81.76 -130.37 C 81.4 -127.18 80.88 -124.53 80.11 -123.04 C 77.54 -118.09 72.86 -114.47 67.74 -110.51 C 65.85 -109.04 63.89 -107.53 61.97 -105.89 C 61.72 -105.66 61.47 -105.44 61.21 -105.23 C 58.04 -102.44 54.99 -99.26 52.52 -95.31 C 58.13 -100.55 63.3 -103.73 68.06 -106.64 C 74.3 -110.47 79.78 -113.84 84.47 -120.97 C 84.1 -122.17 83.91 -123.4 83.88 -124.66 C 83.87 -125.35 84.44 -125.91 85.15 -125.92 C 85.87 -125.94 86.45 -125.39 86.47 -124.7 C 86.6 -117.75 93.67 -111.35 100.61 -105.07 C 105.09 -101.01 109.52 -97.01 112.19 -92.78 C 114.71 -88.8 116.91 -84.19 118.74 -79.44 C 119.4 -77.73 120.01 -76.01 120.58 -74.28 C 118 -93.36 109.21 -102.21 101.7 -109.78 C 100.48 -111 99.3 -112.18 98.18 -113.38 C 95 -116.37 92.6 -119.83 91.25 -123.23 L 91.24 -123.24 C 91.12 -123.54 91 -123.86 90.88 -124.22 C 90.88 -124.23 90.88 -124.24 90.87 -124.25 C 90.86 -124.28 90.86 -124.31 90.85 -124.34 Z " fill="#424748"/>
<path transform="matrix(1,0,0,-1,0,183)" d="M 72.25 -96.61 C 71.48 -94.36 71.71 -91.81 72.72 -88.26 C 75.26 -89.85 76.62 -91.35 76.96 -93.08 C 77.34 -94.99 76.56 -97.37 74.8 -100.62 C 73.55 -99.24 72.71 -97.95 72.25 -96.61 Z " fill="#424748"/>
<path transform="matrix(1,0,0,-1,0,183)" d="M 28.9 -103.45 L 28.9 -103.46 C 27.72 -104.89 26.55 -105.91 25.27 -106.59 C 23.12 -107.73 20.48 -107.96 16.68 -107.64 C 17.85 -104.94 19.13 -103.38 20.83 -102.75 C 22.72 -102.05 25.28 -102.37 28.9 -103.45 Z " fill="#424748"/>
<path transform="matrix(1,0,0,-1,0,183)" d="M 113.48 -59.77 C 113.42 -59.69 113.37 -59.61 113.32 -59.53 C 113.41 -59.55 113.5 -59.58 113.59 -59.61 C 113.55 -59.66 113.51 -59.72 113.48 -59.77 Z " fill="#2c2e35"/>
<path transform="matrix(1,0,0,-1,0,183)" d="M 77.78 -124.16 C 78.42 -125.38 78.87 -127.62 79.19 -130.37 L 2.58 -130.37 C 4.81 -114.65 11.26 -100.28 20.74 -88.45 C 20.9 -88.36 21.03 -88.25 21.14 -88.1 C 21.22 -88 21.25 -87.89 21.29 -87.78 C 24.09 -84.36 27.15 -81.15 30.44 -78.19 C 30.75 -80.92 32.01 -83.89 34.21 -87.82 C 34.55 -88.43 35.33 -88.66 35.97 -88.33 C 36.6 -88 36.83 -87.24 36.49 -86.64 C 35.86 -85.5 35.3 -84.45 34.83 -83.48 C 38.55 -80.47 40.68 -77.98 41.21 -75.27 C 41.53 -73.69 41.27 -72.1 40.47 -70.38 C 43.35 -68.47 46.35 -66.73 49.44 -65.17 C 49.39 -65.32 49.37 -65.48 49.38 -65.64 C 49.38 -65.74 49.4 -65.83 49.43 -65.92 C 51.13 -71.38 52.88 -74.78 55.89 -77.03 C 58.87 -79.26 62.94 -80.25 69.28 -80.93 C 69.99 -81.01 70.63 -80.51 70.71 -79.83 C 70.79 -79.14 70.28 -78.52 69.57 -78.45 C 68.03 -78.29 66.63 -78.1 65.37 -77.89 C 64.88 -72.64 63.87 -69.15 61.65 -66.96 C 59.43 -64.79 56.17 -64.04 51.24 -64.29 C 54.81 -62.59 58.5 -61.14 62.32 -59.93 C 62.63 -59.94 62.92 -59.86 63.17 -59.67 C 65.11 -59.07 67.07 -58.55 69.06 -58.09 C 68.46 -59.3 68.12 -60.62 68.31 -62.15 C 67.72 -61.67 67.14 -61.18 66.57 -60.68 C 66.05 -60.21 65.23 -60.25 64.74 -60.75 C 64.26 -61.26 64.29 -62.05 64.82 -62.52 C 66.39 -63.91 68 -65.15 69.62 -66.39 C 74.6 -70.21 79.58 -74.04 82.52 -82.2 C 82.63 -82.62 82.75 -83.05 82.88 -83.48 C 84.39 -88.7 85.06 -91.92 84.67 -96 C 84.3 -99.84 83 -104.56 80.61 -112.44 C 77.18 -109.26 73.46 -106.98 69.45 -104.52 C 63.43 -100.83 56.72 -96.72 49.36 -88.4 C 48.89 -87.88 48.08 -87.82 47.53 -88.27 C 47.28 -88.48 47.13 -88.77 47.09 -89.07 C 46.93 -89.37 46.9 -89.73 47.03 -90.07 C 48.64 -94.2 50.77 -97.65 53.18 -100.62 C 51.38 -99.91 49.5 -99.29 47.58 -98.72 C 47.47 -98.6 47.33 -98.5 47.17 -98.43 C 45.91 -97.86 44.31 -96.75 42.68 -95.34 C 41.07 -93.94 39.45 -92.27 38.1 -90.55 C 37.67 -90 36.86 -89.89 36.29 -90.3 C 35.72 -90.71 35.6 -91.5 36.03 -92.05 C 37.31 -93.68 38.81 -95.27 40.33 -96.65 C 34.86 -95.03 29.29 -93.04 24.33 -89.19 C 23.77 -88.76 22.95 -88.84 22.51 -89.38 C 22.06 -89.92 22.15 -90.7 22.7 -91.14 C 29.11 -96.1 36.26 -98.11 43.05 -100.03 C 46.17 -100.91 49.22 -101.76 52.05 -102.88 C 51.34 -103.92 50.67 -104.86 50.03 -105.69 C 45.52 -103.96 42.24 -103.34 39.52 -104.17 C 36.67 -105.04 34.65 -107.41 32.78 -111.67 C 32.5 -112.3 32.8 -113.04 33.46 -113.31 C 33.58 -113.35 33.7 -113.38 33.82 -113.4 C 39 -114.29 42.51 -114.31 45.6 -112.9 C 48.67 -111.5 51.15 -108.76 54.29 -104.15 C 54.34 -104.07 54.38 -103.99 54.41 -103.91 C 56.21 -104.77 57.89 -105.78 59.42 -107.03 C 61.29 -108.68 63.21 -110.19 65.09 -111.65 C 65.02 -111.65 64.96 -111.64 64.9 -111.64 C 60.53 -111.17 56.7 -112.96 52.49 -114.92 C 47.71 -117.16 42.39 -119.64 35.1 -118.72 C 34.39 -118.63 33.74 -119.11 33.65 -119.79 C 33.56 -120.48 34.05 -121.1 34.76 -121.19 C 42.83 -122.21 48.51 -119.56 53.62 -117.17 C 54.07 -116.96 59.22 -115.42 60.92 -114.76 C 61.7 -114.46 62.56 -114.26 63.53 -114.18 L 63.52 -114.19 C 66.4 -114.22 69.49 -115.3 73.14 -118.26 C 75.06 -120.09 76.67 -122.01 77.78 -124.16 Z M 69.8 -97.39 C 70.87 -100.51 73.39 -103.21 77.77 -106.76 C 78.32 -107.2 79.13 -107.14 79.59 -106.61 C 80.05 -106.08 79.98 -105.3 79.43 -104.85 C 78.41 -104.02 77.5 -103.24 76.69 -102.51 C 79.01 -98.39 80.04 -95.32 79.51 -92.62 L 79.51 -92.61 C 78.95 -89.78 76.75 -87.57 72.59 -85.26 C 71.97 -84.92 71.19 -85.12 70.83 -85.72 C 70.78 -85.8 70.74 -85.89 70.71 -85.98 C 69.16 -90.87 68.72 -94.25 69.8 -97.39 Z M 34.64 -99.54 C 35 -98.94 34.78 -98.17 34.16 -97.83 C 33.54 -97.49 32.75 -97.7 32.39 -98.3 C 31.73 -99.42 31.09 -100.43 30.49 -101.32 C 25.88 -99.86 22.56 -99.43 19.9 -100.42 C 17.11 -101.46 15.25 -103.94 13.64 -108.3 C 13.4 -108.95 13.76 -109.67 14.43 -109.89 C 14.53 -109.93 14.62 -109.95 14.71 -109.96 C 19.98 -110.56 23.5 -110.37 26.51 -108.78 L 26.52 -108.78 C 29.5 -107.2 31.8 -104.33 34.64 -99.54 Z " fill="#424748" fill-rule="evenodd"/>
<path transform="matrix(1,0,0,-1,0,183)" d="M 72.55 -57.36 C 76.07 -56.71 79.67 -56.28 83.33 -56.07 C 82.6 -57.43 81.98 -58.81 81.51 -60.23 C 80.23 -64.04 79.91 -68.11 80.58 -73.17 C 78.08 -69.85 75.17 -67.48 72.23 -65.2 C 70.07 -61.77 71.03 -59.44 72.55 -57.36 Z " fill="#424748"/>
<path transform="matrix(1,0,0,-1,0,183)" d="M 145.89 -78.52 C 145.92 -78.27 145.97 -78.02 146.05 -77.78 C 147.65 -79.2 149.2 -80.68 150.69 -82.21 C 150.29 -83.41 149.63 -84.6 148.63 -85.88 C 146.63 -82.78 145.66 -80.46 145.89 -78.52 Z " fill="#424748"/>
<path transform="matrix(1,0,0,-1,0,183)" d="M 88.16 -59.95 C 88.52 -58.61 89.02 -57.27 89.57 -55.92 C 92.19 -55.95 94.79 -56.1 97.36 -56.36 C 97.12 -56.5 96.92 -56.69 96.82 -56.96 C 95.24 -60.96 96.77 -64.27 98.18 -67.36 C 99.48 -70.19 100.68 -72.78 98.31 -75.23 C 95.27 -78.17 92.42 -81.59 90.87 -86.95 C 90.34 -84.71 89.69 -82.28 88.92 -79.44 C 86.76 -71.43 86.63 -65.57 88.16 -59.95 Z " fill="#424748"/>
<path transform="matrix(1,0,0,-1,0,183)" d="M 158.4 -95.72 L 158.4 -95.72 C 158.91 -95.09 159.59 -94.6 160.45 -94.22 C 161.31 -95.5 162.13 -96.79 162.92 -98.11 C 162.38 -99.24 161.74 -100.16 160.93 -100.93 C 159.89 -101.92 158.54 -102.71 156.78 -103.39 C 156.74 -99.73 157.16 -97.26 158.4 -95.72 Z " fill="#424748"/>
<path transform="matrix(1,0,0,-1,0,183)" d="M 109.28 -106.54 C 111.5 -104.75 113.62 -103.43 116.18 -102.54 C 122.7 -101.38 125.73 -103.4 128.91 -105.52 C 129.51 -105.92 130.12 -106.32 130.75 -106.71 C 129.45 -106.44 128.22 -106.15 127.09 -105.88 C 126.42 -105.72 125.77 -105.57 125.64 -105.54 C 119.78 -104.19 114.2 -104.77 109.28 -106.54 Z " fill="#424748"/>
<path transform="matrix(1,0,0,-1,0,183)" d="M 100.09 -87.79 C 100.28 -86.03 101.24 -84.38 103.05 -82.29 C 104.26 -84.17 104.71 -85.62 104.39 -86.89 C 104.04 -88.31 102.76 -89.67 100.54 -91.31 C 100.13 -89.98 99.98 -88.84 100.09 -87.79 Z " fill="#424748"/>
<path transform="matrix(1,0,0,-1,0,183)" d="M 121.45 -62.41 C 121.17 -62.58 120.96 -62.86 120.89 -63.2 C 119.86 -68.07 118.31 -73.41 116.32 -78.57 C 114.54 -83.17 112.41 -87.63 109.98 -91.48 C 107.49 -95.41 103.19 -99.31 98.84 -103.25 C 96.31 -105.54 93.77 -107.84 91.51 -110.2 C 92.42 -104.17 92.67 -99.85 92.35 -95.76 C 92.33 -95.49 92.31 -95.22 92.28 -94.94 C 92.67 -83.72 97.77 -79.1 102.59 -74.74 C 104.12 -73.36 105.62 -72 106.98 -70.46 C 107.44 -69.93 107.37 -69.14 106.83 -68.69 C 106.28 -68.25 105.46 -68.31 105 -68.84 C 104.18 -69.78 103.27 -70.67 102.33 -71.54 C 102.16 -69.84 101.37 -68.13 100.56 -66.35 C 99.35 -63.71 98.05 -60.88 99.24 -57.85 C 99.43 -57.38 99.3 -56.89 98.96 -56.55 C 102.59 -56.99 106.14 -57.64 109.62 -58.51 C 110.24 -59.55 110.96 -60.65 111.78 -61.81 C 110.79 -62.92 109.66 -64.1 108.37 -65.37 C 107.87 -65.87 107.88 -66.66 108.39 -67.14 C 108.9 -67.62 109.72 -67.61 110.22 -67.11 C 112.74 -64.63 114.71 -62.46 116.17 -60.42 C 117.96 -61.03 119.72 -61.69 121.45 -62.41 Z M 103.91 -80.23 C 103.6 -79.8 103 -79.69 102.57 -79.98 C 102.51 -80.02 102.46 -80.07 102.41 -80.12 C 99.81 -82.93 98.44 -85.08 98.18 -87.54 C 97.92 -89.99 98.77 -92.61 100.61 -96.4 C 100.84 -96.87 101.41 -97.08 101.88 -96.87 C 102.36 -96.66 102.56 -96.11 102.33 -95.63 C 101.9 -94.75 101.53 -93.93 101.22 -93.18 C 104.09 -91.13 105.76 -89.38 106.26 -87.39 C 106.78 -85.29 105.99 -83.1 103.91 -80.23 Z " fill="#424748" fill-rule="evenodd"/>
<path transform="matrix(1,0,0,-1,0,183)" d="M 151.32 -114.35 C 152.78 -113.71 154.54 -113.91 156.92 -114.89 C 154.73 -117.42 152.92 -118.88 150.88 -119.48 C 149.65 -119.84 148.3 -119.91 146.68 -119.73 C 148.29 -116.83 149.71 -115.06 151.32 -114.35 Z " fill="#424748"/>
<path transform="matrix(1,0,0,-1,0,183)" d="M 174.37 -130.37 L 92.36 -130.37 C 92.6 -128.22 92.91 -126.36 93.34 -125.02 L 93.34 -125.01 C 93.42 -124.78 93.51 -124.54 93.6 -124.3 C 93.61 -124.27 93.62 -124.23 93.64 -124.2 C 94.55 -122.09 95.79 -120.17 97.25 -118.33 C 97.26 -118.32 97.28 -118.31 97.29 -118.3 C 101.78 -114.64 105.42 -113.82 108.86 -114.31 C 109.44 -114.41 109.99 -114.56 110.49 -114.76 C 111.63 -115.2 113.75 -116 116.86 -117.17 C 121.98 -119.56 127.65 -122.21 135.72 -121.19 C 136.43 -121.1 136.93 -120.48 136.84 -119.79 C 136.74 -119.11 136.09 -118.63 135.39 -118.72 C 128.09 -119.64 122.78 -117.16 117.99 -114.92 C 113.35 -112.76 109.16 -110.8 104.19 -111.87 C 104.87 -111.42 105.58 -111 106.31 -110.61 C 111.64 -107.74 118.13 -106.39 125.04 -107.98 C 125.82 -108.16 126.14 -108.23 126.47 -108.31 C 131.81 -109.58 139.15 -111.33 147.16 -108.96 C 147.84 -108.77 148.23 -108.07 148.02 -107.41 C 147.81 -106.75 147.09 -106.38 146.41 -106.58 C 145.34 -106.89 144.28 -107.13 143.23 -107.29 C 143.13 -107.28 143.02 -107.28 142.92 -107.29 C 140.93 -107.48 139.5 -107.41 138.3 -107.17 C 137.12 -106.94 136.09 -106.53 134.95 -106.06 C 133.23 -105.36 131.79 -104.4 130.38 -103.46 C 129.08 -102.6 127.81 -101.75 126.36 -101.07 C 126.99 -101.07 127.64 -101.07 128.32 -101.08 C 131.7 -101.12 134.48 -100.67 136.83 -99.79 C 139.23 -98.89 141.16 -97.56 142.81 -95.87 C 143.3 -95.37 143.28 -94.58 142.76 -94.1 C 142.24 -93.63 141.42 -93.66 140.93 -94.16 C 139.53 -95.58 137.9 -96.71 135.9 -97.46 C 133.84 -98.23 131.38 -98.63 128.35 -98.58 C 128.3 -98.58 128.25 -98.58 128.2 -98.58 C 130.07 -97.03 131.75 -94.86 133.05 -92.16 C 135.18 -87.74 136.34 -81.83 135.64 -74.85 C 135.57 -74.17 134.94 -73.66 134.23 -73.73 C 133.52 -73.79 132.99 -74.4 133.06 -75.09 C 133.71 -81.59 132.66 -87.05 130.7 -91.11 C 128.55 -95.56 125.37 -98.28 122.24 -98.76 C 118.37 -99.09 115.44 -99.87 112.85 -101.14 C 118.81 -93.1 123.73 -82.04 123.9 -63.55 C 123.9 -63.51 123.89 -63.48 123.88 -63.45 C 131.17 -66.71 137.92 -70.95 143.98 -76.01 C 143.63 -76.72 143.41 -77.47 143.31 -78.25 C 142.99 -80.98 144.27 -83.96 146.89 -87.9 L 146.9 -87.9 C 146.15 -88.69 145.3 -89.54 144.34 -90.44 C 143.83 -90.93 143.82 -91.72 144.32 -92.21 C 144.83 -92.7 145.65 -92.71 146.16 -92.22 C 149.38 -89.18 151.48 -86.74 152.63 -84.29 C 154.9 -86.78 157.01 -89.39 158.98 -92.12 C 157.91 -92.65 157.05 -93.33 156.35 -94.2 C 154.61 -96.37 154.08 -99.56 154.21 -104.24 C 153.15 -104.54 151.96 -104.84 150.66 -105.13 C 149.96 -105.28 149.53 -105.95 149.69 -106.63 C 149.85 -107.3 150.54 -107.72 151.24 -107.56 C 156.81 -106.32 160.33 -105.02 162.75 -102.71 C 163.38 -102.11 163.94 -101.44 164.42 -100.7 C 169.41 -109.73 172.86 -119.74 174.37 -130.37 Z M 159.24 -113.45 C 155.56 -111.69 152.87 -111.26 150.48 -112.31 C 148.21 -113.32 146.38 -115.62 144.38 -119.35 C 143.45 -119.16 142.43 -118.91 141.33 -118.61 C 140.74 -118.45 140.11 -118.81 139.93 -119.4 C 139.75 -120 140.08 -120.61 140.67 -120.77 C 145.39 -122.05 148.59 -122.45 151.43 -121.62 C 154.3 -120.78 156.63 -118.74 159.58 -115.15 C 159.63 -115.08 159.67 -115.01 159.71 -114.94 C 160 -114.38 159.78 -113.71 159.24 -113.45 Z " fill="#424748" fill-rule="evenodd"/>
</g>
</g>
</svg>
